Title                            : Agora
Year                             : 2009
Genre                            : Adventure | Drama | History | Romance
iMDB URL                         : http://www.imdb.com/title/tt1186830/
Awards                           : 13 nominations

Complete name                    : Agora.2009.DVDRIP.H264-ZEKTORM.mp4
Format                           : MPEG-4
Format profile                   : Base Media
Codec ID                         : isom
File size                        : 701 MiB
Duration                         : 2h 1mn
Overall bit rate                 : 807 Kbps
Subtitles                        : Spanish (Format: VobSub) / English (Format: srt)

Video
ID                               : 1
Format                           : AVC
Format/Info                      : Advanced Video Codec
Format profile                   : High@L3.0
Format settings, CABAC           : Yes
Codec ID                         : avc1
Codec ID/Info                    : Advanced Video Coding
Duration                         : 2h 1mn
Bit rate mode                    : Variable
Bit rate                         : 718 Kbps
Width                            : 720 pixels
Height                           : 304 pixels
Display aspect ratio             : 2.35
Frame rate mode                  : Constant
Frame rate                       : 25.000 fps
Resolution                       : 24 bits
Colorimetry                      : 4:2:0
Scan type                        : Progressive
Bits/(Pixel*Frame)               : 0.131
Stream size                      : 623 MiB (89%)
Title                            : Video
Writing library                  : x264

Audio
ID                               : 2
Format                           : AAC
Format/Info                      : Advanced Audio Codec
Format version                   : Version 4
Format profile                   : LC
Format settings, SBR             : Yes
Format settings, PS              : No
Codec ID                         : 40
Duration                         : 2h 1mn
Bit rate mode                    : Variable
Bit rate                         : 86.3 Kbps
Maximum bit rate                 : 112 Kbps
Channel(s)                       : 2 channels
Channel positions                : L R
Sampling rate                    : 48.0 KHz
Resolution                       : 16 bits
Stream size                      : 75.0 MiB (11%)
Title                            : English
Language                         : English
